<svg width="38" height="46" fill="none" xmlns="http://www.w3.org/2000/svg"><path fill-rule="evenodd" clip-rule="evenodd" d="M7.136.71a2.638 2.638 0 00-1.692 1.756c-.072.242-.127.793-.127 1.289v.866l-1.664.03c-1.903.033-2.191.111-2.863.783-.733.734-.912 1.601-.716 3.478.337 3.229 1.439 5.725 3.303 7.484.97.915 2.155 1.624 3.274 1.96.362.109.427.172.653.634.728 1.489 1.964 3.298 3.161 4.629.68.756 1.98 1.915 2.974 2.652.899.667 1.133.906 1.39 1.424.202.406.208.491.235 3.175l.028 2.757-.665.33c-1.058.522-1.713 1.394-1.93 2.566l-.106.578-.763.038c-.918.047-1.43.25-1.962.781-.744.745-.75.78-.78 4.321l-.027 3.123.263.295.264.294 9.19.024 9.192.023.291-.26.292-.26V42.3c0-3.068-.007-3.196-.191-3.594a3.323 3.323 0 00-.564-.786c-.53-.53-1.044-.734-1.956-.78l-.759-.038-.11-.584c-.226-1.188-.93-2.09-2.04-2.615l-.56-.265.027-2.763c.027-2.69.034-2.774.236-3.18.257-.518.49-.757 1.39-1.424 2.58-1.915 4.607-4.29 6.008-7.042.363-.712.403-.758.782-.872 1.132-.343 2.38-1.094 3.313-1.995 1.85-1.785 2.928-4.247 3.262-7.45.196-1.877.017-2.744-.717-3.478-.67-.67-.96-.75-2.853-.784l-1.655-.029-.035-1.036c-.027-.812-.075-1.125-.222-1.448-.239-.526-.816-1.105-1.346-1.35l-.413-.19-11.183-.02C8.338.556 7.55.566 7.136.71zM29.88 2.619l.246.246-.003 4.68c-.002 5.138-.018 5.348-.581 7.467-.465 1.75-1.369 3.77-2.328 5.202-1.11 1.658-2.773 3.382-4.503 4.668-1.078.801-1.447 1.192-1.81 1.916-.462.919-.494 1.23-.494 4.705v3.22l.244.269c.188.207.365.29.776.363.861.152 1.467.695 1.602 1.435l.06.332h-8.915l.06-.332c.135-.739.778-1.323 1.558-1.415.337-.04.55-.126.746-.3l.274-.245.025-3.255c.028-3.533-.002-3.836-.473-4.773-.366-.729-.733-1.118-1.812-1.92-1.73-1.287-3.399-3.017-4.503-4.668-.942-1.41-1.874-3.492-2.326-5.193-.565-2.13-.581-2.335-.584-7.468-.002-4.55.003-4.678.175-4.87.098-.11.258-.231.355-.271.098-.04 5.08-.066 11.071-.056l10.894.017.246.246zM5.317 8.79c0 3.18.196 5.032.72 6.792.1.335.163.625.142.647-.085.084-1.383-.871-1.854-1.366-1.558-1.632-2.466-4.16-2.502-6.957-.01-.828.01-.968.166-1.142.28-.313.447-.343 1.93-.35l1.398-.005V8.79zM35.206 6.7c.24.242.245.271.233 1.2-.035 2.803-.942 5.329-2.5 6.963-.472.495-1.77 1.45-1.855 1.366-.021-.022.043-.312.142-.647.524-1.76.72-3.612.72-6.797V6.399l1.507.028 1.507.028.246.247zm-8.877 32.486l.246.246.027 2.395.026 2.394H10.635l.026-2.387c.025-2.242.037-2.4.204-2.584.097-.109.257-.23.355-.271.098-.04 3.482-.066 7.52-.056l7.343.017.246.246zM14.76 40.76c-.28.113-.567.524-.567.811 0 .154.102.366.26.543l.258.29 2.087.026 2.087.027.293-.262c.243-.217.293-.324.293-.634s-.05-.418-.288-.63l-.288-.258-1.974.006c-1.085.003-2.058.04-2.16.08zm7.101 0c-.28.113-.567.524-.567.811 0 .355.408.782.809.846.27.042.368.009.62-.216.249-.223.298-.329.298-.64 0-.31-.05-.418-.288-.63-.291-.261-.532-.308-.872-.171z" fill="#fff"/><path fill-rule="evenodd" clip-rule="evenodd" d="M18.462 5.942c-.467.13-.568.276-1.436 2.063a78.997 78.997 0 01-.914 1.85c-.017.017-.843.146-1.836.287-.993.142-1.95.298-2.128.35-.394.111-.61.416-.61.863 0 .315.089.422 1.503 1.83l1.502 1.496-.342 2.007c-.305 1.79-.329 2.038-.222 2.293.065.157.2.328.298.381.427.229.775.116 2.564-.83l1.752-.927 1.786.927c1.97 1.02 2.266 1.1 2.655.712.118-.118.237-.308.265-.422.028-.114-.102-1.094-.289-2.179l-.34-1.972 1.483-1.48c.95-.95 1.5-1.565 1.527-1.713.07-.359-.156-.788-.49-.934-.16-.07-1.032-.232-1.935-.359a80.768 80.768 0 01-1.89-.28c-.22-.043-.346-.247-1.172-1.898-.51-1.017-.968-1.875-1.02-1.907-.172-.106-.575-.196-.71-.158zm.777 4.176c.318.619.676 1.192.799 1.28.18.129 2.2.506 2.778.518.059 0-.363.455-.937 1.01-.597.577-.888.831-.992 1.147-.108.322-.022.709.127 1.568.097.562.177 1.09.177 1.175 0 .121-.243.026-1.183-.466-.651-.341-1.295-.62-1.432-.62-.136 0-.782.282-1.434.627-.653.345-1.188.586-1.188.535 0-.05.1-.656.22-1.345.192-1.095.205-1.288.101-1.533-.065-.155-.526-.675-1.024-1.156-.497-.481-.89-.89-.871-.909.018-.018.61-.116 1.314-.219.705-.101 1.367-.24 1.472-.307.104-.068.455-.67.779-1.338.323-.668.617-1.186.652-1.151.036.035.324.568.642 1.184z" fill="#DB3138"/><circle cx="22.279" cy="41.648" r=".976" fill="#DB3138"/></svg>