<svg width="20" height="20" fill="none" xmlns="http://www.w3.org/2000/svg"><path d="M19.969 4.885c.17.46-.353 1.532-1.567 3.217-.17.23-.389.536-.656.919-.559.715-.875 1.187-.947 1.417-.122.306-.073.6.145.88.122.154.401.46.838.92h.037v.038c.996.944 1.664 1.749 2.004 2.412l.073.154.073.287v.364l-.255.287-.62.134-2.66.076c-.17.026-.37 0-.601-.076a2.501 2.501 0 01-.528-.23l-.22-.153a4.28 4.28 0 01-.728-.69 30 30 0 01-.71-.842 3.735 3.735 0 00-.638-.632c-.219-.166-.413-.223-.583-.172-.024 0-.055.013-.091.038a1.53 1.53 0 00-.183.172c-.085.09-.157.198-.218.326-.06.128-.116.313-.164.555-.049.243-.073.53-.073.862a1.1 1.1 0 01-.036.287c-.025.09-.049.16-.073.21l-.037.04a.771.771 0 01-.583.229H9.802c-.51.05-1.026 0-1.549-.153a5.49 5.49 0 01-1.366-.594c-.389-.242-.74-.485-1.057-.727a6.477 6.477 0 01-.729-.632l-.255-.268a1.64 1.64 0 01-.291-.307 46.1 46.1 0 01-.747-.995 24.693 24.693 0 01-1.111-1.647c-.365-.587-.79-1.36-1.276-2.317A38.204 38.204 0 01.073 5.306.92.92 0 010 5c0-.077.012-.14.036-.192l.037-.038c.097-.153.291-.23.583-.23h2.879c.072 0 .145.02.218.058l.182.096.037.038a.607.607 0 01.255.345c.146.357.31.733.492 1.13.182.395.322.695.419.9l.146.305c.218.434.419.811.6 1.13.183.32.347.568.493.747.146.179.291.319.437.421.146.102.267.153.365.153.097 0 .194-.012.291-.038l.036-.057.128-.25.146-.497.09-.88V6.76a7.138 7.138 0 00-.108-.785 2.442 2.442 0 00-.146-.517l-.037-.114c-.17-.256-.473-.422-.91-.498-.074 0-.05-.09.072-.268.122-.128.255-.23.401-.307.364-.204 1.19-.293 2.478-.268.559 0 1.032.051 1.421.153.121.026.23.07.328.134a.59.59 0 01.219.269c.048.114.085.23.109.344.024.115.036.281.036.498v.594a6.67 6.67 0 00-.036.765v.92c0 .076-.006.23-.018.46-.012.229-.018.408-.018.535 0 .128.012.275.036.44.024.167.067.307.128.422.06.115.14.198.236.249a.629.629 0 00.164.057c.061.013.152-.025.274-.115.121-.09.255-.217.4-.383.146-.166.328-.415.547-.746.219-.332.45-.715.692-1.15.413-.765.79-1.595 1.13-2.488.024-.051.055-.109.091-.173a.33.33 0 01.128-.134h.036l.037-.038.145-.038h.219l2.988-.039a1.87 1.87 0 01.674.039c.182.05.286.115.31.191l.073.115z" fill="#fff"/></svg>